<svg xmlns="http://www.w3.org/2000/svg" xmlns:xlink="http://www.w3.org/1999/xlink" width="138" height="138" viewBox="0 0 138 138">
  <defs>
    <clipPath id="clip-customer-support">
      <rect width="138" height="138"/>
    </clipPath>
  </defs>
  <g id="customer-support" clip-path="url(#clip-customer-support)">
    <g id="Group_28694" data-name="Group 28694" transform="translate(-1250.704 -7101.521)">
      <g id="Group_28693" data-name="Group 28693" transform="translate(1266 7127.14)">
        <g id="Group_27999" data-name="Group 27999" transform="translate(0 0)">
          <path id="Path_172612" data-name="Path 172612" d="M381.765,143.22a4.475,4.475,0,0,1-2.715-.915,41.015,41.015,0,0,1-16.162-33.5,42.383,42.383,0,0,1,9.733-27.468c6.454-7.595,15.093-11.777,24.327-11.777s17.87,4.184,24.318,11.782a42.432,42.432,0,0,1,9.72,27.524,4.5,4.5,0,0,1-8.99,0c0-16.716-11.236-30.316-25.047-30.316s-25.07,13.6-25.07,30.307q0,.054,0,.107a32,32,0,0,0,12.609,26.183,4.5,4.5,0,0,1-2.721,8.076Z" transform="translate(-338.47 -57.739)" fill="#fff"/>
          <path id="Path_172613" data-name="Path 172613" d="M421.225,153.69a4.5,4.5,0,0,1-.293-8.981c10.471-.694,22.386-7.539,26.01-13.125a25,25,0,0,0,1.242-10.758,4.493,4.493,0,0,1-.024-.468c0-24.5-18.038-44.44-40.21-44.44-19.1,0-35.677,15-39.423,35.667a4.5,4.5,0,0,1-8.846-1.6A54.622,54.622,0,0,1,376.394,79.36a46.4,46.4,0,0,1,66.485,3.365,55.505,55.505,0,0,1,14.271,37.4,34.035,34.035,0,0,1-1.917,14.972,4.5,4.5,0,0,1-.355.745c-2.5,4.209-7.4,8.419-13.782,11.853a49.533,49.533,0,0,1-19.57,5.984C421.425,153.687,421.324,153.69,421.225,153.69Z" transform="translate(-349.899 -66.928)" fill="#fff"/>
          <path id="Path_172614" data-name="Path 172614" d="M374.4,103.513h-2.89a14.131,14.131,0,0,1-14.066-14.054v-.028A13.613,13.613,0,0,1,370.989,75.9H374.4a4.5,4.5,0,0,1,4.5,4.5V99.018A4.5,4.5,0,0,1,374.4,103.513Zm-7.965-14.066a5.117,5.117,0,0,0,3.47,4.805V85.026A4.607,4.607,0,0,0,366.438,89.447Z" transform="translate(-357.448 -35.572)" fill="#fff"/>
          <path id="Path_172615" data-name="Path 172615" d="M381.8,103.209a10.964,10.964,0,1,1,.017,0Zm0-12.847a1.928,1.928,0,0,0-.008,3.857,1.954,1.954,0,0,0,1.936-1.94A1.928,1.928,0,0,0,381.8,90.361Z" transform="translate(-310.483 -16.447)" fill="#fff"/>
        </g>
      </g>
    </g>
  </g>
</svg>
