<svg xmlns="http://www.w3.org/2000/svg" xmlns:xlink="http://www.w3.org/1999/xlink" width="138" height="138" viewBox="0 0 138 138">
  <defs>
    <clipPath id="clip-path">
      <rect id="Rectangle_4765" data-name="Rectangle 4765" width="123.202" height="123.197" fill="#fff"/>
    </clipPath>
    <clipPath id="clip-deals_discounts">
      <rect width="138" height="138"/>
    </clipPath>
  </defs>
  <g id="deals_discounts" data-name="deals&amp;discounts" clip-path="url(#clip-deals_discounts)">
    <g id="Group_206" data-name="Group 206" transform="translate(-432.131 -52.47)">
      <g id="Group_28696" data-name="Group 28696" transform="translate(439.53 59.872)">
        <g id="Group_28695" data-name="Group 28695" clip-path="url(#clip-path)">
          <g id="Group_205" data-name="Group 205" transform="translate(-0.001 -0.006)">
            <path id="Path_211" data-name="Path 211" d="M501.129,183.075a18.342,18.342,0,0,1-13.018-5.374l-.129-.129-4.371-4.362a9.507,9.507,0,0,0-6.65-2.747h-6.354a18.475,18.475,0,0,1-18.46-18.474v-6.344A9.466,9.466,0,0,0,449.4,139l-4.433-4.448a18.454,18.454,0,0,1-.124-26.036l.124-.124,4.433-4.443a9.4,9.4,0,0,0,2.747-6.655v-6.34a18.472,18.472,0,0,1,18.46-18.474h6.354a9.53,9.53,0,0,0,6.66-2.747l4.424-4.429a18.468,18.468,0,0,1,25.979-.186c.067.057.129.115.2.177l4.448,4.457a9.355,9.355,0,0,0,6.645,2.733h6.335A18.49,18.49,0,0,1,550.12,90.959V97.3a9.374,9.374,0,0,0,2.747,6.664l4.433,4.429a18.491,18.491,0,0,1,.057,26.1l-4.51,4.515a9.451,9.451,0,0,0-2.742,6.64v6.34a18.478,18.478,0,0,1-18.459,18.474H525.3a9.36,9.36,0,0,0-6.655,2.747l-4.433,4.429A18.328,18.328,0,0,1,501.129,183.075Zm-6.607-11.7a9.454,9.454,0,0,0,13.31-.1l4.457-4.452a18.336,18.336,0,0,1,13.013-5.379h6.344a9.459,9.459,0,0,0,9.459-9.459v-6.344a18.54,18.54,0,0,1,5.37-13.009l4.5-4.5a9.471,9.471,0,0,0-.048-13.367l-4.452-4.443A18.392,18.392,0,0,1,541.1,97.3V90.954a9.466,9.466,0,0,0-9.449-9.459H525.3a18.32,18.32,0,0,1-13.009-5.365l-4.333-4.343-.167-.158a9.453,9.453,0,0,0-13.367.038l-4.443,4.448a18.367,18.367,0,0,1-13.023,5.379h-6.354a9.466,9.466,0,0,0-9.449,9.459v6.34a18.358,18.358,0,0,1-5.374,13.009l-4.381,4.4-.115.115a9.44,9.44,0,0,0,.029,13.353l.01.01,4.448,4.462a18.52,18.52,0,0,1,5.379,13.009v6.344a9.465,9.465,0,0,0,9.454,9.45h6.354a18.6,18.6,0,0,1,12.994,5.379l4.453,4.448Z" transform="translate(-439.53 -59.871)" fill="#fff"/>
            <path id="Line_1" data-name="Line 1" d="M452.675,109.237a4.493,4.493,0,0,1-3.186-7.687L481.225,69.82a4.5,4.5,0,1,1,6.373,6.368h0l-31.731,31.731A4.476,4.476,0,0,1,452.675,109.237Z" transform="translate(-406.947 -27.27)" fill="#fff"/>
            <path id="Path_212" data-name="Path 212" d="M462.951,92.4a9.08,9.08,0,0,1-6.445-2.666,9.476,9.476,0,0,1-1.93-2.9V86.8a8.59,8.59,0,0,1-.745-3.54,9.053,9.053,0,0,1,.745-3.6,9.121,9.121,0,0,1,14.843-2.857,9.368,9.368,0,0,1,1.978,2.838q.086.194.158.4a10.169,10.169,0,0,1,.54,3.21,9.694,9.694,0,0,1-.54,3.153,3.944,3.944,0,0,1-.162.416,9.84,9.84,0,0,1-1.978,2.89A9.089,9.089,0,0,1,462.951,92.4Z" transform="translate(-385.51 -5.786)" fill="#fff"/>
            <path id="Path_213" data-name="Path 213" d="M456.333,85.806a8.6,8.6,0,0,1-3.554-.764,9.438,9.438,0,0,1-2.886-1.892,2.782,2.782,0,0,1-.224-.248,10.548,10.548,0,0,1-1.71-2.671l-.024-.053a8.737,8.737,0,0,1-.75-3.516,9.04,9.04,0,0,1,.75-3.6,8.527,8.527,0,0,1,2.073-3,9.132,9.132,0,0,1,15.445,6.593,8.611,8.611,0,0,1-.688,3.545v.024A10.859,10.859,0,0,1,463,82.9c-.072.081-.148.162-.225.248a9.236,9.236,0,0,1-2.838,1.9A8.892,8.892,0,0,1,456.333,85.806Z" transform="translate(-410.618 -30.917)" fill="#fff"/>
          </g>
        </g>
      </g>
    </g>
  </g>
</svg>
