<svg xmlns="http://www.w3.org/2000/svg" xmlns:xlink="http://www.w3.org/1999/xlink" width="60" height="60" viewBox="0 0 60 60">
  <defs>
    <clipPath id="clip-device-popup">
      <rect width="60" height="60"/>
    </clipPath>
  </defs>
  <g id="device-popup" clip-path="url(#clip-device-popup)">
    <circle id="Ellipse_829" data-name="Ellipse 829" cx="27" cy="27" r="27" transform="translate(3 3)" fill="#008269"/>
    <g id="Group_28758" data-name="Group 28758" transform="translate(-1805.706 -370.02)">
      <path id="Path_172888" data-name="Path 172888" d="M1837.159,407.446H1823.34a1.185,1.185,0,0,1-1.185-1.185v-16.6a3.7,3.7,0,0,1,3.7-3.7H1844.6a3.7,3.7,0,0,1,3.7,3.7,1.184,1.184,0,1,1-2.369,0,1.329,1.329,0,0,0-1.328-1.328h-18.749a1.329,1.329,0,0,0-1.328,1.328v15.42h12.634a1.185,1.185,0,1,1,0,2.369Z" transform="translate(0.254)" fill="#fff"/>
      <path id="Path_172889" data-name="Path 172889" d="M1837.866,410.831h-14.336a2.754,2.754,0,0,1-2.75-2.75V402.1h2.816a1.185,1.185,0,1,1,0,2.369h-.447v3.613a.382.382,0,0,0,.381.381h14.336a1.185,1.185,0,0,1,0,2.369Z" transform="translate(0 2.978)" fill="#fff"/>
      <path id="Rectangle_31" data-name="Rectangle 31" d="M1838.742,393.981h6.785a2.24,2.24,0,0,1,2.2,2.277v14.066a2.241,2.241,0,0,1-2.2,2.277h-6.785a2.241,2.241,0,0,1-2.2-2.277V396.258A2.241,2.241,0,0,1,1838.742,393.981Zm6.613,2.369h-6.441v13.881h6.441Z" transform="translate(2.909 1.48)" fill="#fff"/>
      <path id="Line_243" data-name="Line 243" d="M1.916,1.369H.185A1.185,1.185,0,0,1,.185-1H1.916a1.185,1.185,0,0,1,0,2.369Z" transform="translate(1834.055 409.258)" fill="#fff"/>
      <path id="Line_243-2" data-name="Line 243" transform="translate(1845.044 410.296)" fill="#fff"/>
      <path id="Line_1136" data-name="Line 1136" d="M.185,4.015A1.185,1.185,0,0,1-1,2.831V.185a1.185,1.185,0,1,1,2.369,0V2.831A1.185,1.185,0,0,1,.185,4.015Z" transform="translate(1847.183 390.085)" fill="#fff"/>
      <path id="Security_check" data-name="Security check" d="M1832.392,397.262a.456.456,0,0,1-.322-.134L1829.945,395a.455.455,0,0,1,.643-.643l1.8,1.8,3.018-3.017a.455.455,0,1,1,.666.621l-.022.022-3.339,3.339A.455.455,0,0,1,1832.392,397.262Z" transform="translate(1.669 1.299)" fill="#fff" fill-rule="evenodd"/>
      <path id="Security_check_-_Outline" data-name="Security check - Outline" d="M1832.484,397.946a1.054,1.054,0,0,1-.741-.307L1829.6,395.5a1.047,1.047,0,0,1,1.48-1.481l.015.014,1.384,1.384,2.594-2.593a1.047,1.047,0,0,1,1.472-.041,1.046,1.046,0,0,1,.05,1.48l-.035.036-3.34,3.34A1.053,1.053,0,0,1,1832.484,397.946Z" transform="translate(1.577 1.207)" fill="#fff"/>
    </g>
  </g>
</svg>
