<svg xmlns="http://www.w3.org/2000/svg" xmlns:xlink="http://www.w3.org/1999/xlink" width="200" height="38" viewBox="-24 21.5 1047 133">
  <metadata><?xpacket begin="﻿" id="W5M0MpCehiHzreSzNTczkc9d"?>
<x:xmpmeta xmlns:x="adobe:ns:meta/" x:xmptk="Adobe XMP Core 5.6-c138 79.159824, 2016/09/14-01:09:01        ">
   <rdf:RDF xmlns:rdf="http://www.w3.org/1999/02/22-rdf-syntax-ns#">
      <rdf:Description rdf:about=""/>
   </rdf:RDF>
</x:xmpmeta>
                                                                                                    
                                                                                                    
                                                                                                    
                                                                                                    
                                                                                                    
                                                                                                    
                                                                                                    
                                                                                                    
                                                                                                    
                                                                                                    
                                                                                                    
                                                                                                    
                                                                                                    
                                                                                                    
                                                                                                    
                                                                                                    
                                                                                                    
                                                                                                    
                                                                                                    
                                                                                                    
                           
<?xpacket end="w"?></metadata>
<defs>
    <style>
      .cls-1 {
        fill: #fff;
      }

      .cls-1, .cls-3 {
        fill-rule: evenodd;
      }

      .cls-2, .cls-3 {
        fill: #fff;
      }
    </style>
    <clipPath id="clip-path">
      <rect width="999" height="176"/>
    </clipPath>
  </defs>
  <g clip-path="url(#clip-path)">
    <path id="InternetBanking" class="cls-1" d="M325.093,108.009V38.284h-9.607v69.725h9.607Zm22.56,0V71.718q8.1-6.77,14.68-6.772,8.743,0,8.744,12.591v30.472h9.5V74.469q0-9.2-4.426-13.49a15.343,15.343,0,0,0-11.118-4.285q-8.529,0-17.7,7.406l-1.08-6.137h-8.1v50.045h9.5Zm73.725-2.857-3.13-6.454a15.8,15.8,0,0,1-8.2,2.646q-5.181,0-5.181-6.349V65.476H417.6l2.591-7.512H404.863V43.574l-9.5,2.963V57.964H386.62v7.512h8.744V96.794q0,5.82,3.292,9.046t9.229,3.227a22.986,22.986,0,0,0,13.493-3.915h0Zm44.9-.634-3.022-6.454a26.727,26.727,0,0,1-12.63,3.385q-7.449,0-11.712-4.549t-4.48-11.85h33.031V82.722q0-12.062-5.613-19.045t-15.544-6.983a19.3,19.3,0,0,0-15.652,7.195q-5.937,7.2-5.937,18.727,0,11.427,6.315,18.939t18.4,7.512a31.308,31.308,0,0,0,16.839-4.549h0Zm-28.5-36.4a10.416,10.416,0,0,1,8.528-4.021,9.473,9.473,0,0,1,8.258,4.074,18,18,0,0,1,3.076,9.893H434.438A15.831,15.831,0,0,1,437.784,68.121Zm47.388,39.888v-36.4q6.691-6.452,11.766-6.454a10.194,10.194,0,0,1,4.857,1.27l3.346-8.253a11.253,11.253,0,0,0-6.044-1.481q-7.234,0-14.357,7.406l-1.08-6.137h-7.988v50.045h9.5Zm33.355,0V71.718q8.1-6.77,14.68-6.772,8.743,0,8.744,12.591v30.472h9.5V74.469q0-9.2-4.426-13.49a15.344,15.344,0,0,0-11.118-4.285q-8.529,0-17.7,7.406l-1.08-6.137h-8.1v50.045h9.5ZM601,104.518l-3.023-6.454a26.727,26.727,0,0,1-12.629,3.385q-7.449,0-11.712-4.549a17.411,17.411,0,0,1-4.48-11.85h33.031V82.722q0-12.062-5.613-19.045t-15.544-6.983a19.3,19.3,0,0,0-15.652,7.195q-5.939,7.2-5.937,18.727,0,11.427,6.315,18.939t18.4,7.512A31.309,31.309,0,0,0,601,104.518h0Zm-28.5-36.4a10.416,10.416,0,0,1,8.528-4.021,9.473,9.473,0,0,1,8.258,4.074,18,18,0,0,1,3.076,9.893H569.152A15.825,15.825,0,0,1,572.5,68.121Zm68.113,37.031L637.48,98.7a15.8,15.8,0,0,1-8.2,2.646q-5.183,0-5.182-6.349V65.476h12.738l2.59-7.512H624.1V43.574l-9.5,2.963V57.964h-8.744v7.512H614.6V96.794q0,5.82,3.292,9.046t9.23,3.227a22.988,22.988,0,0,0,13.493-3.915h0Zm28.28,2.857q11.658,0,18.027-5.555a18.263,18.263,0,0,0,6.369-14.442,16.716,16.716,0,0,0-3.779-10.951,17.338,17.338,0,0,0-9.93-5.978V70.872A14.659,14.659,0,0,0,686.324,65a16.977,16.977,0,0,0,2.429-9.046,16.325,16.325,0,0,0-5.559-12.644q-5.562-5.024-16.354-5.026H648.921v69.725h19.97ZM658.528,76.374h10.9q6.368,0,10.2,3.174a10.551,10.551,0,0,1,3.833,8.57q0,12.062-15.113,12.062h-9.823V76.374Zm0-30.26h7.448q6.693,0,9.931,3.015a10.528,10.528,0,0,1,3.239,8.094,10.448,10.448,0,0,1-3.455,8.306q-3.455,3.015-9.93,3.015h-7.233V46.114Zm82.794,61.9q-0.972-3.808-.972-15.659v-18.2q0-8.781-4.965-13.12T721.46,56.694A35.645,35.645,0,0,0,703,61.667l3.347,6.454a27.6,27.6,0,0,1,13.925-3.915,11.206,11.206,0,0,1,7.718,2.539q2.859,2.539,2.86,7.618v2.645l-9.5.317q-8.205.317-12.845,2.539-8.638,4.022-8.636,13.543a14.738,14.738,0,0,0,4.642,11.374,16.666,16.666,0,0,0,11.766,4.285q8.2,0,15.22-6.454l1.619,5.4h8.2ZM730.851,95.736q-5.5,5.713-12.3,5.713a9.039,9.039,0,0,1-6.531-2.327,8.241,8.241,0,0,1-2.429-6.242,7.665,7.665,0,0,1,3.994-7.089,20.9,20.9,0,0,1,8.96-1.8l8.311-.317V95.736Zm29.469,12.273V71.718q8.1-6.77,14.68-6.772,8.743,0,8.744,12.591v30.472h9.5V74.469q0-9.2-4.426-13.49A15.343,15.343,0,0,0,777.7,56.694q-8.529,0-17.7,7.406l-1.08-6.137h-8.1v50.045h9.5Zm53.539,0V83.145h0.216l20.51,24.864h11.334L821.847,79.336,843.76,57.964H832.534L814.075,76.056h-0.216V33.1h-9.5v74.909h9.5Zm47.063,0V57.964h-9.5v50.045h9.5Zm-0.378-62.054a5.765,5.765,0,0,0,1.781-4.285,5.6,5.6,0,0,0-1.781-4.232,6.251,6.251,0,0,0-4.48-1.693,5.921,5.921,0,0,0-4.317,1.693,5.682,5.682,0,0,0-1.727,4.232,5.932,5.932,0,0,0,6.044,6.031A6.141,6.141,0,0,0,860.544,45.955Zm21.426,62.054V71.718q8.1-6.77,14.681-6.772,8.744,0,8.743,12.591v30.472h9.5V74.469q0-9.2-4.425-13.49a15.347,15.347,0,0,0-11.119-4.285q-8.528,0-17.7,7.406l-1.079-6.137h-8.1v50.045h9.5Zm80.149,20.685q6.744-4.392,6.746-11.48a10.487,10.487,0,0,0-3.454-8.253,17.719,17.719,0,0,0-8.42-4.073q-4.966-1-9.877-1.587a37.045,37.045,0,0,1-8.366-1.852q-3.456-1.269-3.454-3.914a7.683,7.683,0,0,1,2.267-5.079,19.528,19.528,0,0,0,6.477.952q8.958,0,14.572-5.026a16.84,16.84,0,0,0,5.613-13.173,16.757,16.757,0,0,0-5.289-12.591,7.975,7.975,0,0,1,4.534-1.164,14.228,14.228,0,0,1,3.13.317l2.159-6.983a16.262,16.262,0,0,0-3.13-.317q-6.909,0-11.119,4.126a0.859,0.859,0,0,1-1.187.106,23.18,23.18,0,0,0-9.823-1.9q-8.744,0-14.087,5.184a17.131,17.131,0,0,0-5.343,12.8q0,10.264,8.2,15.236-5.724,4.657-5.721,9.734A6.679,6.679,0,0,0,930.113,106q-9.392,4.23-9.391,12.591,0,6.769,6.152,10.633t16.624,3.862Q955.371,133.085,962.119,128.694Zm-28.552-5.026q-4.1-2.435-4.1-6.665,0-4.658,6.045-8.465a54.4,54.4,0,0,0,7.286,1.429q4.8,0.686,8.1,1.216a14.936,14.936,0,0,1,5.937,2.275,5.386,5.386,0,0,1,2.645,4.708q0,3.492-3.94,5.714T944.577,126.1Q937.668,126.1,933.567,123.668Zm2.7-40.787A11.1,11.1,0,0,1,933.351,75a10.108,10.108,0,0,1,10.687-10.792,10.4,10.4,0,0,1,7.826,3.068,10.8,10.8,0,0,1,2.968,7.829q0,5.185-2.968,8.041A10.67,10.67,0,0,1,944.146,86,10.258,10.258,0,0,1,936.266,82.881Z"/>
    <rect id="Rectangle_3_copy_26" data-name="Rectangle 3 copy 26" class="cls-2" x="15" y="137" width="959" height="4"/>
    <rect class="cls-2" x="15.938" y="33" width="18.781" height="77.563"/>
    <path class="cls-3" d="M39.412,77.982L55.057,62.471H78.524V33H97.3v77.555H78.524V77.982H39.412Z"/>
    <path class="cls-3" d="M211.506,33h17.209V95.044h53.193l-15.645,15.511H211.506V33Z"/>
    <path class="cls-3" d="M117.636,33v77.555h56.322s21.9-3,21.9-22.8V85.274a17.766,17.766,0,0,0-10.952-16.6s7.562-5.946,7.822-13.96v-3.1S194.687,34.551,177.087,33H117.636Zm17.21,13.96h34.418a7.55,7.55,0,0,1,6.258,7.755,7.349,7.349,0,0,1-6.258,7.756h-14.08L141.1,77.982h28.16s7.823,0.145,7.823,9.307c0,9.307-7.823,9.307-7.823,9.307H134.846V46.96Z"/>
  </g>
</svg>
