<svg xmlns="http://www.w3.org/2000/svg" width="60" height="60" viewBox="0 0 60 60">
  <g id="hide-password" transform="translate(0 0.049)">
    <rect id="Rectangle_1098" data-name="Rectangle 1098" width="60" height="60" transform="translate(0 -0.049)" fill="#576167" opacity="0"/>
    <path id="Path_23716" data-name="Path 23716" d="M44.728,45.619a1.185,1.185,0,0,0,.127-.032,1.009,1.009,0,0,0,.793-.714,1.02,1.02,0,0,0-.285-1.031L6.79,5.269A1.032,1.032,0,1,0,5.331,6.728l8.6,8.6A45.981,45.981,0,0,0,2.254,24.619a1.032,1.032,0,0,0,0,1.332c.44.512,10.9,12.53,23.093,12.53a22.935,22.935,0,0,0,9.485-2.252L43.9,45.3A1.019,1.019,0,0,0,44.728,45.619ZM25.347,36.451c-.4,0-.781-.036-1.174-.063a11.174,11.174,0,0,1-7.423-18.24l5.107,5.107a3.977,3.977,0,0,0-.571,2.03,4.058,4.058,0,0,0,4.06,4.06,3.977,3.977,0,0,0,2.03-.571l5.107,5.107A11.126,11.126,0,0,1,25.347,36.451Zm13.2-2.189a45.889,45.889,0,0,0,9.9-8.311,1.032,1.032,0,0,0,0-1.332c-.44-.512-10.9-12.53-23.093-12.53-.408,0-.8.028-1.205.063A22.623,22.623,0,0,0,17.8,13.517l2.062,2.062a11.043,11.043,0,0,1,5.488-1.459c.4,0,.781.036,1.174.063a11.19,11.19,0,0,1,9.992,11.1,11.043,11.043,0,0,1-1.459,5.488Zm-9.167-9.136a4.019,4.019,0,0,0-3.87-3.87Z" transform="translate(4.512 5.377)" fill="#576167"/>
  </g>
</svg>
