<svg xmlns="http://www.w3.org/2000/svg" xmlns:xlink="http://www.w3.org/1999/xlink" width="34" height="34" viewBox="0 0 34 34">
  <defs>
    <clipPath id="clip-info">
      <rect width="34" height="34"/>
    </clipPath>
  </defs>
  <g id="info" clip-path="url(#clip-info)">
    <path id="Subtraction_1" data-name="Subtraction 1" d="M-216.16-1455.32a16.731,16.731,0,0,1-11.908-4.933A16.729,16.729,0,0,1-233-1472.16a16.73,16.73,0,0,1,4.932-11.908A16.73,16.73,0,0,1-216.16-1489a16.729,16.729,0,0,1,11.907,4.932,16.73,16.73,0,0,1,4.933,11.908,16.73,16.73,0,0,1-4.933,11.907A16.73,16.73,0,0,1-216.16-1455.32Zm0-12.248a1.533,1.533,0,0,0-1.531,1.531,1.533,1.533,0,0,0,1.531,1.531h.015a1.533,1.533,0,0,0,1.531-1.531,1.533,1.533,0,0,0-1.531-1.531Zm0-12.247a1.533,1.533,0,0,0-1.531,1.531v6.124a1.533,1.533,0,0,0,1.531,1.531,1.533,1.533,0,0,0,1.531-1.531v-6.124A1.533,1.533,0,0,0-216.16-1479.815Z" transform="translate(233.16 1489.16)" fill="#008269"/>
  </g>
</svg>
