<svg xmlns="http://www.w3.org/2000/svg" xmlns:xlink="http://www.w3.org/1999/xlink" width="207" height="219" viewBox="0 0 207 219">
  <defs>
    <clipPath id="clip-i-img">
      <rect width="207" height="219"/>
    </clipPath>
  </defs>
  <g id="i-img" clip-path="url(#clip-i-img)">
    <path id="Subtraction_1" data-name="Subtraction 1" d="M230.5-4654a102.825,102.825,0,0,1-73.185-30.318A102.817,102.817,0,0,1,127-4757.5a102.808,102.808,0,0,1,30.315-73.178A102.826,102.826,0,0,1,230.5-4861a102.826,102.826,0,0,1,73.185,30.319A102.808,102.808,0,0,1,334-4757.5a102.817,102.817,0,0,1-30.315,73.19A102.825,102.825,0,0,1,230.5-4654Zm1.107-111.906a9.516,9.516,0,0,0-9.509,9.505v38.044a9.519,9.519,0,0,0,9.509,9.509,9.519,9.519,0,0,0,9.509-9.509V-4756.4A9.516,9.516,0,0,0,231.608-4765.9Zm0-38.036a9.519,9.519,0,0,0-9.509,9.509,9.52,9.52,0,0,0,9.509,9.509h.088a9.524,9.524,0,0,0,9.518-9.509,9.524,9.524,0,0,0-9.518-9.509Z" transform="translate(-127 4866.498)" fill="#fff"/>
  </g>
</svg>
