<svg xmlns="http://www.w3.org/2000/svg" xmlns:xlink="http://www.w3.org/1999/xlink" width="34" height="34" viewBox="0 0 34 34">
  <defs>
    <clipPath id="clip-locator">
      <rect width="34" height="34"/>
    </clipPath>
  </defs>
  <g id="locator" clip-path="url(#clip-locator)">
    <g id="Group_28547" data-name="Group 28547" transform="translate(-661.302 -60.652)">
      <g id="Group_28548" data-name="Group 28548" transform="translate(664.11 60.652)">
        <path id="Path_172755" data-name="Path 172755" d="M678.874,60.766a14.208,14.208,0,0,1,14.192,14.192A16.194,16.194,0,0,1,690.9,82.7a29.861,29.861,0,0,1-4.58,6.138,42.774,42.774,0,0,1-6.584,5.665,1.557,1.557,0,0,1-1.727,0,42.771,42.771,0,0,1-6.584-5.665,29.861,29.861,0,0,1-4.58-6.138,16.193,16.193,0,0,1-2.164-7.743A14.208,14.208,0,0,1,678.874,60.766Zm0,30.527c2.743-2.049,11.079-8.887,11.079-16.335a11.078,11.078,0,0,0-22.156,0C667.8,82.422,676.128,89.247,678.873,91.293Z" transform="translate(-664.682 -60.766)" fill="#fff"/>
        <path id="Ellipse_811" data-name="Ellipse 811" d="M4.371-1A5.371,5.371,0,1,1-1,4.371,5.377,5.377,0,0,1,4.371-1Zm0,7.629A2.257,2.257,0,1,0,2.114,4.371,2.26,2.26,0,0,0,4.371,6.629Z" transform="translate(10.154 10.155)" fill="#fff"/>
      </g>
    </g>
  </g>
</svg>
