<svg xmlns="http://www.w3.org/2000/svg" xmlns:xlink="http://www.w3.org/1999/xlink" width="29" height="29" viewBox="0 0 29 29">
  <defs>
    <clipPath id="clip-login">
      <rect width="29" height="29"/>
    </clipPath>
  </defs>
  <g id="login" clip-path="url(#clip-login)">
    <g id="Group_28740" data-name="Group 28740" transform="translate(-354.293 -6237.292)">
      <path id="Path_172888" data-name="Path 172888" d="M189.637,883.994H179.556a3.432,3.432,0,0,1-3.428-3.428V860.948a3.438,3.438,0,0,1,3.433-3.434h10.076a3.438,3.438,0,0,1,3.434,3.434v2.495a.965.965,0,0,1-1.929,0v-2.495a1.506,1.506,0,0,0-1.5-1.5H179.561a1.506,1.506,0,0,0-1.5,1.5v19.618a1.5,1.5,0,0,0,1.5,1.5h10.081a1.512,1.512,0,0,0,1.418-1,1.482,1.482,0,0,0,.086-.5v-1.582a.965.965,0,0,1,1.929,0v1.582a3.407,3.407,0,0,1-.2,1.152A3.446,3.446,0,0,1,189.637,883.994Z" transform="translate(179.426 5381.038)" fill="#008269"/>
      <g id="Group_28739" data-name="Group 28739" transform="translate(369.416 6245.267)">
        <path id="Line_1136" data-name="Line 1136" d="M10.652.929H-.035A.965.965,0,0,1-1-.035.965.965,0,0,1-.035-1H10.652a.965.965,0,0,1,.965.965A.965.965,0,0,1,10.652.929Z" transform="translate(1 6.959)" fill="#008269"/>
        <path id="Path_172890" data-name="Path 172890" d="M196.805,878.322a.962.962,0,0,1-.719-.321l-5.343-5.959a.965.965,0,0,1,0-1.288l5.343-5.959a.965.965,0,1,1,1.437,1.288l-4.766,5.315,4.766,5.315a.965.965,0,0,1-.718,1.609Z" transform="translate(-190.497 -864.475)" fill="#008269"/>
      </g>
    </g>
  </g>
</svg>
