<svg xmlns="http://www.w3.org/2000/svg" xmlns:xlink="http://www.w3.org/1999/xlink" width="40.605" height="49.829" viewBox="0 0 40.605 49.829">
  <defs>
    <clipPath id="clip-path">
      <rect id="Rectangle_5439" data-name="Rectangle 5439" width="40.605" height="49.829" fill="none"/>
    </clipPath>
  </defs>
  <g id="Group_28224" data-name="Group 28224" transform="translate(0 0)">
    <g id="Group_28776" data-name="Group 28776" transform="translate(0 0)" clip-path="url(#clip-path)">
      <path id="Path_173320" data-name="Path 173320" d="M12.973,44.108H4.964A4.97,4.97,0,0,1,0,39.144V4.962A4.972,4.972,0,0,1,4.964,0H34.445a4.968,4.968,0,0,1,4.962,4.962v18.8a1.758,1.758,0,0,1-3.517,0V4.962a1.447,1.447,0,0,0-1.445-1.445H4.964A1.45,1.45,0,0,0,3.517,4.964v34.18a1.449,1.449,0,0,0,1.447,1.447h8.009a1.758,1.758,0,0,1,0,3.517Z" transform="translate(0 0.001)" fill="#fff"/>
      <path id="Path_173321" data-name="Path 173321" d="M21.377,27.6a1.757,1.757,0,0,1-.87-.23L10.255,21.536a1.758,1.758,0,0,1,0-3.057l10.338-5.866a1.758,1.758,0,0,1,1.761.015l10.165,5.993a1.758,1.758,0,0,1-.037,3.051L22.232,27.38A1.757,1.757,0,0,1,21.377,27.6ZM14.684,20.01l6.7,3.816,6.706-3.735-6.646-3.918Z" transform="translate(7.104 9.392)" fill="#fff"/>
      <path id="Path_173322" data-name="Path 173322" d="M20.706,37.853a1.757,1.757,0,0,1-.953-.281L10.06,31.319a1.758,1.758,0,0,1-.805-1.478V17.775a1.754,1.754,0,0,1,.6-1.319,1.758,1.758,0,0,1,2.379-.472l3.718,2.359,6.064,3.846a1.758,1.758,0,0,1,.727.929l.047.142a1.758,1.758,0,0,1,.089.615l-.411,12.277a1.758,1.758,0,0,1-1.757,1.7Zm-7.934-8.969,6.28,4.052.278-8.281-5.266-3.341-1.291-.819Z" transform="translate(7.019 11.916)" fill="#fff"/>
      <path id="Path_173323" data-name="Path 173323" d="M16.679,37.725A1.759,1.759,0,0,1,15.8,34.44l9.7-5.548.273-11.217a1.758,1.758,0,0,1,3.516.086l-.3,12.209a1.758,1.758,0,0,1-.885,1.484L17.55,37.493A1.75,1.75,0,0,1,16.679,37.725Z" transform="translate(11.314 12.104)" fill="#fff"/>
      <path id="Line_1084" data-name="Line 1084" d="M21.087,2.517H.758A1.758,1.758,0,1,1,.758-1H21.087a1.758,1.758,0,0,1,0,3.517Z" transform="translate(8.501 13.244)" fill="#fff"/>
      <path id="Path_173324" data-name="Path 173324" d="M13.805,19.3a1.758,1.758,0,0,1-1.2-3.048l5.257-4.872L12.61,6.507A1.758,1.758,0,0,1,15,3.927l6.648,6.161a1.758,1.758,0,0,1,0,2.579L15,18.83A1.752,1.752,0,0,1,13.805,19.3Z" transform="translate(9.136 2.624)" fill="#fff"/>
    </g>
  </g>
</svg>
