<svg xmlns="http://www.w3.org/2000/svg" width="33.646" height="46.014" viewBox="0 0 33.646 46.014">
  <g id="Group_27285" data-name="Group 27285" transform="translate(-3457.177 -7943.993)">
    <g id="Group_27282" data-name="Group 27282" transform="translate(3457.177 7943.993)">
      <path id="Path_28777" data-name="Path 28777" d="M141.569,159.491a10.669,10.669,0,0,1-21.076-3.131,10.383,10.383,0,0,1,3.887-7.286,9.853,9.853,0,0,1,5.167-2.247c-3.988,2.233-5.96,5.573-5.138,10.13a8.672,8.672,0,0,0,7.173,7.276A9.145,9.145,0,0,0,141.569,159.491Z" transform="translate(-114.633 -136.208)" fill="#008269"/>
      <path id="Path_28778" data-name="Path 28778" d="M169.321,146.352a12.8,12.8,0,0,1-.987,2.138,12.378,12.378,0,0,1-1.267,1.784c-.113-.09-.066-.191-.066-.275q0-8.33,0-16.66a1.985,1.985,0,0,1,.246-1.081,1.617,1.617,0,0,1,1.832-.7,1.476,1.476,0,0,1,1.127,1.527q0,12.506,0,25.013a1.463,1.463,0,0,1-1.342,1.566,1.558,1.558,0,0,1-1.843-1.422c-.051-.653-.012-1.313-.024-1.97a.557.557,0,0,1,.179-.366,11.2,11.2,0,0,0,2.333-7.895C169.475,147.5,169.394,146.994,169.321,146.352Z" transform="translate(-141.254 -127.434)" fill="#008269"/>
      <path id="Path_28779" data-name="Path 28779" d="M106.879,157.077c0-2.768,0-5.536,0-8.3A1.489,1.489,0,0,1,107.9,147.3a1.628,1.628,0,0,1,1.8.446,1.518,1.518,0,0,1,.388,1.028q0,8.3,0,16.608a1.54,1.54,0,0,1-1.582,1.563,1.515,1.515,0,0,1-1.618-1.562c-.01-2.768,0-5.536,0-8.3Z" transform="translate(-106.87 -136.417)" fill="#008269"/>
      <path id="Path_28780" data-name="Path 28780" d="M146.171,154.888c0,2.611-.007,5.222.008,7.834,0,.355-.093.459-.446.435a8.542,8.542,0,0,1-2.5-.562.415.415,0,0,1-.29-.461q.009-6.942,0-13.885a.5.5,0,0,1,.317-.5,14.384,14.384,0,0,1,2.494-1.059c.366-.127.422-.022.421.315-.009,2.627,0,5.254,0,7.881Z" transform="translate(-127.499 -136.1)" fill="#008269"/>
      <path id="Path_28781" data-name="Path 28781" d="M181.174,154.723q0,2.907,0,5.814a1.482,1.482,0,0,1-1.494,1.661,1.557,1.557,0,0,1-1.707-1.63c-.018-1.735,0-3.47,0-5.2,0-2.126-.005-4.251,0-6.377a1.585,1.585,0,0,1,1.748-1.736,1.473,1.473,0,0,1,1.452,1.47C181.179,150.721,181.174,152.722,181.174,154.723Z" transform="translate(-147.531 -136.449)" fill="#008269"/>
      <path id="Path_28782" data-name="Path 28782" d="M155.017,137.886q0-.843,0-1.686,0-5.537,0-11.074a1.541,1.541,0,0,1,.853-1.5,1.606,1.606,0,0,1,1.652.077,1.539,1.539,0,0,1,.717,1.394c0,3.723,0,7.446.009,11.168,0,.3-.156.387-.382.5-.25.122-.339-.041-.459-.178q-.926-1.058-1.85-2.115c-.058-.066-.113-.184-.218-.137-.126.056-.074.19-.057.289.165.945.24,1.9.338,2.853C155.663,137.891,155.272,137.774,155.017,137.886Z" transform="translate(-134.405 -122.826)" fill="#008269"/>
      <path id="Path_28783" data-name="Path 28783" d="M119,144.88a1.075,1.075,0,0,1-.049-.167c0-3.926-.008-7.852,0-11.778a1.533,1.533,0,0,1,1.546-1.455,1.582,1.582,0,0,1,1.64,1.48c.028,2.267.009,4.535.015,6.8a.522.522,0,0,1-.2.4A11.825,11.825,0,0,0,119,144.88Z" transform="translate(-113.775 -127.428)" fill="#008269"/>
      <path id="Path_28784" data-name="Path 28784" d="M158.14,193.521a.323.323,0,0,1,.094.309c0,3.048.009,6.1,0,9.146a1.587,1.587,0,0,1-2.019,1.649,1.522,1.522,0,0,1-1.2-1.529c-.011-2.517,0-5.034,0-7.551,0-.164.006-.3.195-.377A12.129,12.129,0,0,0,158.14,193.521Z" transform="translate(-134.4 -162.914)" fill="#008269"/>
      <path id="Path_28785" data-name="Path 28785" d="M131.005,133.862c-.009-.2-.021-.338-.021-.473,0-2.749.029-5.5-.017-8.246a1.611,1.611,0,1,1,3.217-.006c.009,2.343,0,4.686,0,7.028,0,.164.051.347-.19.413A11.917,11.917,0,0,0,131.005,133.862Z" transform="translate(-120.65 -122.836)" fill="#008269"/>
      <path id="Path_28786" data-name="Path 28786" d="M146.174,127.345c0,1.234-.013,2.469.009,3.7.007.369-.1.43-.453.4a17.6,17.6,0,0,0-2.477-.094c-.241.016-.307-.059-.3-.278.007-.375,0-.75,0-1.125,0-2.078,0-4.156,0-6.234a1.545,1.545,0,0,1,1.668-1.7,1.5,1.5,0,0,1,1.546,1.579C146.183,124.845,146.174,126.095,146.174,127.345Z" transform="translate(-127.504 -122.016)" fill="#008269"/>
      <path id="Path_28787" data-name="Path 28787" d="M146.168,202.6c0,1.064,0,2.128,0,3.192a1.613,1.613,0,1,1-3.224.028c-.013-2.144,0-4.287-.01-6.43,0-.321.1-.4.407-.376a9.184,9.184,0,0,0,2.429-.122c.386-.077.405.075.4.377C146.161,200.383,146.168,201.494,146.168,202.6Z" transform="translate(-127.494 -165.977)" fill="#008269"/>
      <path id="Path_28788" data-name="Path 28788" d="M156.2,165.074l1.457-2.429c.04-.067.075-.137.117-.2.072-.114.113-.279.3-.232s.137.223.137.351c0,1.2,0,2.409,0,3.613,0,1.126-.006,2.252,0,3.378a.606.606,0,0,1-.268.551,8.465,8.465,0,0,1-2.536,1.284c-.3.1-.435.068-.433-.315.016-3.034.007-6.068.017-9.1,0-.146-.135-.457.193-.4.23.038.6-.063.632.38.074.934.172,1.867.26,2.8.009.093.014.187.021.28Z" transform="translate(-134.38 -144.634)" fill="#008269"/>
      <path id="Path_28789" data-name="Path 28789" d="M170.207,203.831c0,.813,0,1.626,0,2.44a1.531,1.531,0,0,1-1.5,1.63,1.59,1.59,0,0,1-1.7-1.607c-.023-1.219-.007-2.44-.007-3.66,0-.454-.015-.908.012-1.36a1.571,1.571,0,0,1,1.187-1.457,1.616,1.616,0,0,1,1.852.758,1.394,1.394,0,0,1,.16.721C170.2,202.141,170.207,202.986,170.207,203.831Z" transform="translate(-141.255 -166.486)" fill="#008269"/>
      <path id="Path_28790" data-name="Path 28790" d="M134.782,164.618a7.906,7.906,0,0,1,0-11.961Z" transform="translate(-121.267 -139.542)" fill="#008269"/>
      <path id="Path_28791" data-name="Path 28791" d="M118.934,196.087c0-.672-.007-1.344,0-2.016a1.53,1.53,0,0,1,1.543-1.547,1.565,1.565,0,0,1,1.65,1.457c.035,1.421.039,2.845,0,4.266a1.522,1.522,0,0,1-1.768,1.4,1.46,1.46,0,0,1-1.423-1.492C118.926,197.462,118.934,196.775,118.934,196.087Z" transform="translate(-113.765 -162.343)" fill="#008269"/>
      <path id="Path_28792" data-name="Path 28792" d="M110.077,199.516c0,.532,0,1.064,0,1.6a1.54,1.54,0,0,1-1.572,1.57,1.5,1.5,0,0,1-1.63-1.543q-.022-1.642,0-3.285a1.491,1.491,0,0,1,1.626-1.493,1.519,1.519,0,0,1,1.572,1.513C110.085,198.421,110.077,198.969,110.077,199.516Z" transform="translate(-106.863 -164.539)" fill="#008269"/>
      <path id="Path_28793" data-name="Path 28793" d="M181.165,188.359c0,.53,0,1.061,0,1.592a1.518,1.518,0,0,1-1.55,1.578,1.6,1.6,0,0,1-1.652-1.51q-.033-1.637,0-3.277A1.505,1.505,0,0,1,179,185.27a1.571,1.571,0,0,1,1.7.325,1.332,1.332,0,0,1,.466,1.031C181.158,187.2,181.165,187.782,181.165,188.359Z" transform="translate(-147.521 -158.129)" fill="#008269"/>
      <path id="Path_28794" data-name="Path 28794" d="M130.982,195.22a12.418,12.418,0,0,0,2.995,1.285c.194.052.22.175.217.348-.008.562.012,1.125-.007,1.687a1.622,1.622,0,0,1-1.674,1.6,1.591,1.591,0,0,1-1.543-1.655C131.02,197.425,130.982,196.362,130.982,195.22Z" transform="translate(-120.651 -163.886)" fill="#008269"/>
      <path id="Path_28795" data-name="Path 28795" d="M144.6,222.048a1.527,1.527,0,0,1,1.58,1.6,1.614,1.614,0,0,1-3.227-.012A1.552,1.552,0,0,1,144.6,222.048Z" transform="translate(-127.505 -179.231)" fill="#008269"/>
      <path id="Path_28796" data-name="Path 28796" d="M106.878,215.737a1.56,1.56,0,0,1,1.617-1.576,1.579,1.579,0,0,1,1.591,1.613,1.549,1.549,0,0,1-1.651,1.583A1.524,1.524,0,0,1,106.878,215.737Z" transform="translate(-106.872 -174.72)" fill="#008269"/>
      <path id="Path_28797" data-name="Path 28797" d="M181.183,203.656a1.5,1.5,0,0,1-1.56,1.6,1.6,1.6,0,0,1-1.646-1.606,1.556,1.556,0,0,1,1.626-1.561A1.476,1.476,0,0,1,181.183,203.656Z" transform="translate(-147.538 -167.816)" fill="#008269"/>
      <path id="Path_28798" data-name="Path 28798" d="M131,210.872a1.485,1.485,0,0,1,1.609-1.544,1.584,1.584,0,1,1-.027,3.168A1.5,1.5,0,0,1,131,210.872Z" transform="translate(-120.667 -171.955)" fill="#008269"/>
      <path id="Path_28799" data-name="Path 28799" d="M158.938,157.012c-.533-.121-.944-.19-1.338-.31a.565.565,0,0,0-.806.335,13.243,13.243,0,0,1-.7,1.193c-.062-.6-.142-1.063-.145-1.522,0-.326-.144-.422-.423-.474-.455-.086-.905-.2-1.486-.331.553-.24.987-.445,1.433-.616a.389.389,0,0,0,.3-.487c-.064-.472-.084-.95-.133-1.561.413.465.748.826,1.064,1.2a.34.34,0,0,0,.479.111c.445-.21.9-.387,1.474-.627-.295.507-.506.919-.764,1.3a.423.423,0,0,0,.05.638C158.258,156.192,158.546,156.559,158.938,157.012Z" transform="translate(-133.844 -139.874)" fill="#008269"/>
      <path id="Path_28800" data-name="Path 28800" d="M120.835,183.839a1.557,1.557,0,0,1-1.928-1.641c.056-.587.01-1.184.047-1.791A13.8,13.8,0,0,0,120.835,183.839Z" transform="translate(-113.748 -155.414)" fill="#008269"/>
      <path id="Path_28801" data-name="Path 28801" d="M142.1,146.7c-.01.007-.021.02-.031.019s-.018-.015-.027-.024c.01-.007.021-.02.03-.019S142.088,146.687,142.1,146.7Z" transform="translate(-126.983 -136.118)" fill="#008269"/>
    </g>
  </g>
</svg>
