<svg xmlns="http://www.w3.org/2000/svg" xmlns:xlink="http://www.w3.org/1999/xlink" width="138" height="138" viewBox="0 0 138 138">
  <defs>
    <clipPath id="clip-reward-programs">
      <rect width="138" height="138"/>
    </clipPath>
  </defs>
  <g id="reward-programs" clip-path="url(#clip-reward-programs)">
    <g id="Group_28711" data-name="Group 28711" transform="translate(-711.19 -27.47)">
      <g id="Group_28708" data-name="Group 28708" transform="translate(756.961 88.371)">
        <path id="Path_172858" data-name="Path 172858" d="M764.315,68.776a2.735,2.735,0,0,1,2.452,1.524l5.7,11.541L785.2,83.7a2.735,2.735,0,0,1,1.512,4.665L777.5,97.346l2.175,12.682a2.735,2.735,0,0,1-3.968,2.883l-11.392-5.991-11.392,5.991a2.735,2.735,0,0,1-3.968-2.883l2.175-12.682-9.217-8.977a2.735,2.735,0,0,1,1.512-4.665l12.741-1.862,5.7-11.542A2.735,2.735,0,0,1,764.315,68.776Zm14.619,19.539-8.682-1.269a2.735,2.735,0,0,1-2.057-1.5l-3.88-7.861-3.881,7.861a2.735,2.735,0,0,1-2.057,1.5L749.7,88.315l6.28,6.117a2.735,2.735,0,0,1,.787,2.421l-1.481,8.638,7.76-4.081a2.734,2.734,0,0,1,2.546,0l7.76,4.081-1.481-8.638a2.735,2.735,0,0,1,.787-2.421Z" transform="translate(-741.086 -68.776)" fill="#fff"/>
      </g>
      <g id="Group_28709" data-name="Group 28709" transform="translate(731.935 107.842)">
        <path id="Path_172859" data-name="Path 172859" d="M746.314,75.9a2.735,2.735,0,0,1,2.452,1.524l2.962,6,6.625.968a2.735,2.735,0,0,1,1.513,4.665l-4.792,4.667,1.131,6.594a2.735,2.735,0,0,1-3.968,2.883l-5.923-3.115L740.39,103.2a2.735,2.735,0,0,1-3.968-2.883l1.131-6.594-4.792-4.667a2.735,2.735,0,0,1,1.513-4.665l6.625-.968,2.963-6A2.735,2.735,0,0,1,746.314,75.9ZM752.083,89l-2.567-.375a2.735,2.735,0,0,1-2.057-1.5l-1.146-2.322-1.146,2.322a2.734,2.734,0,0,1-2.057,1.5L740.544,89l1.855,1.807a2.735,2.735,0,0,1,.787,2.421l-.437,2.549,2.291-1.205a2.735,2.735,0,0,1,2.546,0l2.291,1.2-.437-2.549a2.734,2.734,0,0,1,.787-2.421Z" transform="translate(-731.935 -75.897)" fill="#fff"/>
      </g>
      <g id="Group_28710" data-name="Group 28710" transform="translate(799.687 107.842)">
        <path id="Path_172860" data-name="Path 172860" d="M771.089,75.9a2.735,2.735,0,0,1,2.452,1.524l2.962,6,6.625.968a2.735,2.735,0,0,1,1.512,4.665l-4.792,4.667,1.131,6.594a2.735,2.735,0,0,1-3.968,2.883l-5.923-3.115-5.923,3.115a2.735,2.735,0,0,1-3.968-2.883l1.131-6.594-4.792-4.667a2.735,2.735,0,0,1,1.512-4.665l6.626-.968,2.962-6A2.735,2.735,0,0,1,771.089,75.9ZM776.858,89l-2.567-.375a2.735,2.735,0,0,1-2.057-1.5l-1.146-2.321-1.146,2.321a2.735,2.735,0,0,1-2.057,1.5L765.32,89l1.855,1.807a2.734,2.734,0,0,1,.787,2.421l-.437,2.549,2.291-1.2a2.735,2.735,0,0,1,2.546,0l2.291,1.2-.437-2.549A2.735,2.735,0,0,1,775,90.809Z" transform="translate(-756.71 -75.897)" fill="#fff"/>
      </g>
      <path id="Rectangle_4766" data-name="Rectangle 4766" d="M1.735-1H46.2a2.735,2.735,0,0,1,2.735,2.735V6.979A15.286,15.286,0,0,1,33.663,22.247h-19.4A15.286,15.286,0,0,1-1,6.979V1.735A2.735,2.735,0,0,1,1.735-1ZM43.462,4.469H4.469V6.979a9.81,9.81,0,0,0,9.8,9.8h19.4a9.81,9.81,0,0,0,9.8-9.8Z" transform="translate(756.223 58.481)" fill="#fff"/>
    </g>
  </g>
</svg>
