<svg xmlns="http://www.w3.org/2000/svg" xmlns:xlink="http://www.w3.org/1999/xlink" width="60" height="60" viewBox="0 0 60 60">
  <defs>
    <clipPath id="clip-sobc-prelogin">
      <rect width="60" height="60"/>
    </clipPath>
  </defs>
  <g id="sobc-prelogin" clip-path="url(#clip-sobc-prelogin)">
    <g id="Group_28757" data-name="Group 28757" transform="translate(-58.53 -154.279)">
      <g id="Group_28756" data-name="Group 28756" transform="translate(66.015 160.919)">
        <path id="Path_172888" data-name="Path 172888" d="M85.689,205.512H72.058a6.049,6.049,0,0,1-6.043-6.043V168.983a6.05,6.05,0,0,1,6.043-6.044h30.487a6.05,6.05,0,0,1,6.043,6.044v12.588a1.688,1.688,0,1,1-3.377,0V168.983a2.67,2.67,0,0,0-2.666-2.668H72.058a2.67,2.67,0,0,0-2.666,2.668V199.47a2.669,2.669,0,0,0,2.666,2.666H85.689a1.688,1.688,0,0,1,0,3.377Z" transform="translate(-66.014 -159.529)" fill="#fff"/>
        <path id="Line_1136" data-name="Line 1136" d="M.688,11.087A1.688,1.688,0,0,1-1,9.4V.688a1.688,1.688,0,1,1,3.377,0V9.4A1.688,1.688,0,0,1,.688,11.087Z" transform="translate(29.641 1)" fill="#fff"/>
        <path id="Line_1137" data-name="Line 1137" d="M.688,11.087A1.688,1.688,0,0,1-1,9.4V.688a1.688,1.688,0,1,1,3.377,0V9.4A1.688,1.688,0,0,1,.688,11.087Z" transform="translate(12.221 1)" fill="#fff"/>
        <path id="Line_1138" data-name="Line 1138" d="M39.885,2.377H.688A1.688,1.688,0,0,1,.688-1h39.2a1.688,1.688,0,1,1,0,3.377Z" transform="translate(1 17.476)" fill="#fff"/>
        <path id="Ellipse_842" data-name="Ellipse 842" d="M9.886-1A10.886,10.886,0,1,1-1,9.886,10.9,10.9,0,0,1,9.886-1Zm0,18.4a7.51,7.51,0,1,0-7.51-7.51A7.518,7.518,0,0,0,9.886,17.4Z" transform="translate(24.259 25.947)" fill="#fff"/>
      </g>
      <path id="Rs_-_Outline" data-name="Rs - Outline" d="M6.981,3.271a3.168,3.168,0,0,1-1.466-.337l.144.241H3.675L2.51,1.2A2.484,2.484,0,0,0,2.061.553H1.927V3.175H.228V-4H2.081a3.167,3.167,0,0,1,1.613.364A1.957,1.957,0,0,1,4.713-1.829,1.968,1.968,0,0,1,3.724-.01c.118.163.259.377.43.664l.97,1.625.455-1.072.414.24a1.921,1.921,0,0,0,.96.289A.853.853,0,0,0,7.4,1.641c.027-.017.056-.035.056-.136,0-.02,0-.044-.059-.09a1.648,1.648,0,0,0-.425-.231C6.751,1.1,6.531,1,6.314.9A1.88,1.88,0,0,1,5.627.339a1.535,1.535,0,0,1-.308-.958A1.6,1.6,0,0,1,5.888-1.86a2.148,2.148,0,0,1,1.448-.468,3.737,3.737,0,0,1,1.342.249l.271.1V-.307L8.356-.569a2.428,2.428,0,0,0-.982-.223.657.657,0,0,0-.356.063C7.011-.724,7-.716,7-.657c0,.02,0,.044.059.09a1.648,1.648,0,0,0,.425.231c.217.084.438.179.655.282a1.862,1.862,0,0,1,.688.569,1.587,1.587,0,0,1,.306.979,1.582,1.582,0,0,1-.669,1.354A2.518,2.518,0,0,1,6.981,3.271Zm-2.823-.94h.015L3.429,1.087C3.371.991,3.319.9,3.271.829Zm-3.085,0h.011V-3.155H1.072ZM1.927-.993h.145a1.169,1.169,0,0,0,.6-.144l.013-.007a.584.584,0,0,0,.3-.6.589.589,0,0,0-.232-.535,1.1,1.1,0,0,0-.672-.177H1.927Zm1.5-1.81a1.476,1.476,0,0,1,.4,1.06,1.853,1.853,0,0,1-.061.486,1.481,1.481,0,0,0,.1-.573A1.122,1.122,0,0,0,3.431-2.8Z" transform="translate(95.856 197.006)" fill="#fff" stroke="#fff" stroke-width="0.5"/>
    </g>
  </g>
</svg>
