<svg xmlns="http://www.w3.org/2000/svg" xmlns:xlink="http://www.w3.org/1999/xlink" width="138" height="138" viewBox="0 0 138 138">
  <defs>
    <clipPath id="clip-tutorial-menu-white">
      <rect width="138" height="138"/>
    </clipPath>
  </defs>
  <g id="tutorial-menu-white" clip-path="url(#clip-tutorial-menu-white)">
    <g id="Group_28542" data-name="Group 28542" transform="translate(-847.9 -63.449)">
      <g id="Group_28540" data-name="Group 28540" transform="translate(870.1 79.143)">
        <g id="smartphone">
          <path id="Rectangle_31" data-name="Rectangle 31" d="M925.1,185.755H880.713A10.625,10.625,0,0,1,870.1,175.141V89.76a10.627,10.627,0,0,1,10.614-10.617H925.1A10.629,10.629,0,0,1,935.715,89.76v12.967a3.99,3.99,0,0,1-7.98,0V89.76a2.64,2.64,0,0,0-2.637-2.637H880.713a2.638,2.638,0,0,0-2.634,2.637v85.381a2.636,2.636,0,0,0,2.634,2.633H925.1a2.638,2.638,0,0,0,2.637-2.633v-8.89a3.99,3.99,0,0,1,7.98,0v8.89A10.627,10.627,0,0,1,925.1,185.755Z" transform="translate(-870.1 -79.143)" fill="#008269"/>
          <path id="Line_243" data-name="Line 243" d="M12.929,6.98H2.99A3.99,3.99,0,0,1,2.99-1h9.939a3.99,3.99,0,1,1,0,7.98Z" transform="translate(24.847 87.143)" fill="#008269"/>
        </g>
      </g>
      <g id="Group_28541" data-name="Group 28541" transform="translate(883.054 107.412)">
        <path id="Path_172755" data-name="Path 172755" d="M918.519,126.686H889.687a11.443,11.443,0,0,1-9.762-5.991q-.066-.116-.124-.236l-5.292-10.914a10.761,10.761,0,0,1,.441-10.519,10.979,10.979,0,0,1,9.435-5.177h35.128a3.99,3.99,0,1,1,0,7.98H884.384a3.015,3.015,0,0,0-2.646,1.391,2.758,2.758,0,0,0-.082,2.776l.022.045,5.236,10.8a3.5,3.5,0,0,0,2.773,1.867h28.832a3.094,3.094,0,0,0,2.793-1.571l12.88-25.093q.04-.078.084-.155a11.111,11.111,0,0,1,9.762-5.66H950a3.99,3.99,0,0,1,0,7.98h-5.965a3.094,3.094,0,0,0-2.793,1.571l-12.881,25.093q-.04.078-.084.155A11.111,11.111,0,0,1,918.519,126.686Z" transform="translate(-873.347 -86.228)" fill="#008269"/>
        <path id="Line_1096" data-name="Line 1096" d="M28.84,6.98H2.99A3.99,3.99,0,1,1,2.99-1H28.84a3.99,3.99,0,0,1,0,7.98Z" transform="translate(13.35 21.216)" fill="#008269"/>
        <path id="Ellipse_811" data-name="Ellipse 811" d="M4.978-1A5.978,5.978,0,1,1-1,4.978,5.985,5.985,0,0,1,4.978-1Z" transform="translate(37.212 39.841)" fill="#008269"/>
        <path id="Ellipse_812" data-name="Ellipse 812" d="M4.978-1A5.978,5.978,0,1,1-1,4.978,5.985,5.985,0,0,1,4.978-1Z" transform="translate(13.35 39.841)" fill="#008269"/>
      </g>
    </g>
  </g>
</svg>
